<?xml version="1.0" standalone="no"?>
<!DOCTYPE svg PUBLIC "-//W3C//DTD SVG 20010904//EN"
 "http://www.w3.org/TR/2001/REC-SVG-20010904/DTD/svg10.dtd">
<svg version="1.0" xmlns="http://www.w3.org/2000/svg"
 width="282.000000pt" height="282.000000pt" viewBox="0 0 282.000000 282.000000"
 preserveAspectRatio="xMidYMid meet">
<metadata>
Created by potrace 1.16, written by Peter Selinger 2001-2019
</metadata>
<g transform="translate(0.000000,282.000000) scale(0.100000,-0.100000)"
fill="#000000" stroke="none">
<path d="M1170 2390 c-14 -4 -42 -8 -62 -9 -20 -1 -40 -5 -43 -11 -3 -5 -19
-10 -35 -10 -16 0 -32 -4 -35 -10 -3 -5 -14 -10 -24 -10 -10 0 -31 -6 -47 -14
-16 -8 -56 -26 -88 -42 -171 -79 -350 -255 -454 -446 -33 -62 -81 -197 -103
-293 -19 -80 -19 -331 0 -410 55 -238 166 -437 321 -575 146 -131 311 -214
519 -260 64 -15 357 -16 403 -1 18 5 53 15 78 21 25 7 54 16 65 20 11 5 40 16
65 25 64 23 212 110 252 147 18 17 43 37 56 46 12 8 22 18 22 23 0 5 15 23 34
39 50 45 154 202 191 289 40 95 70 195 85 286 13 73 9 251 -7 340 -12 63 -67
224 -100 290 -62 124 -182 270 -278 341 -22 16 -42 31 -45 34 -13 15 -72 51
-140 85 -85 43 -98 48 -160 65 -25 7 -54 16 -65 21 -49 20 -358 35 -405 19z
m245 -70 c0 -23 -4 -25 -47 -28 -63 -4 -67 -29 -5 -34 35 -2 43 -7 45 -25 3
-21 -1 -23 -41 -23 -29 0 -47 -5 -50 -14 -8 -21 2 -26 49 -26 38 0 44 -3 50
-24 3 -14 4 -28 1 -33 -3 -4 -45 -6 -94 -3 -65 4 -105 1 -153 -13 -36 -9 -70
-15 -77 -13 -6 3 -16 29 -22 58 -21 108 -29 163 -24 170 2 5 17 8 33 8 26 0
30 -4 35 -37 4 -21 10 -56 14 -78 l7 -40 47 3 c43 3 47 1 48 -20 3 -51 17 38
18 113 0 42 4 79 8 83 4 4 41 5 83 4 73 -3 75 -4 75 -28z m260 -45 c33 -16 55
-50 55 -85 0 -33 -42 -25 -70 12 l-23 31 -24 -27 c-40 -47 -25 -114 22 -95 32
13 44 10 55 -12 26 -48 -64 -81 -118 -43 -52 36 -64 101 -33 170 29 64 71 79
136 49z m-711 -1 c9 -4 19 -23 22 -45 4 -21 10 -39 15 -39 33 0 52 -80 27
-112 -18 -22 -104 -78 -120 -78 -17 0 -101 171 -97 195 2 10 29 34 59 52 57
34 68 37 94 27z m881 -88 c15 -23 15 -27 -1 -51 -16 -25 -16 -27 4 -48 l21
-21 25 27 c26 29 44 28 63 -2 10 -15 4 -29 -34 -86 -24 -37 -42 -69 -39 -72 2
-3 42 9 88 26 l83 31 18 -21 c25 -31 21 -68 -14 -132 -17 -32 -29 -61 -27 -66
2 -6 30 3 63 20 69 34 84 36 91 12 6 -18 12 -35 33 -86 24 -60 5 -110 -42
-109 -23 0 -45 -24 -33 -36 3 -3 26 1 50 8 55 15 72 10 78 -25 6 -29 -6 -38
-68 -54 -22 -5 -56 -14 -76 -19 -31 -8 -40 -7 -54 9 -10 11 -14 27 -11 41 4
12 0 29 -7 38 -7 8 -21 35 -30 60 -9 25 -31 64 -47 87 -21 31 -28 49 -23 67 7
29 -21 77 -41 70 -7 -3 -22 3 -33 14 -11 11 -29 23 -40 26 -38 12 -45 31 -27
70 19 39 15 63 -11 73 -16 6 -31 -7 -54 -47 -7 -12 -11 -12 -29 4 -12 11 -21
25 -21 32 0 21 94 172 110 177 8 3 16 5 17 6 2 0 10 -10 18 -23z m-1042 -68
c38 -51 47 -71 47 -105 0 -35 -6 -49 -38 -83 -55 -57 -86 -52 -154 25 -56 64
-61 79 -34 104 12 11 25 21 27 21 3 0 23 -25 45 -55 26 -37 46 -55 60 -55 43
0 36 53 -14 106 -38 40 -45 64 -26 85 9 10 22 19 29 19 6 0 33 -28 58 -62z
m651 -77 c17 -5 51 -15 76 -22 136 -37 314 -173 386 -294 83 -141 108 -230
106 -391 -1 -137 -18 -206 -84 -335 -80 -155 -263 -299 -439 -345 -86 -23
-282 -23 -364 -1 -116 32 -258 120 -335 205 -65 73 -75 88 -113 163 -45 88
-56 125 -69 241 -18 147 5 271 74 407 34 68 61 104 134 176 91 91 149 128 264
167 25 9 59 20 75 26 38 13 249 15 289 3z m-805 -109 c26 -21 34 -37 38 -73 8
-74 -41 -149 -97 -149 -29 0 -41 -15 -19 -22 24 -8 7 -156 -22 -191 -7 -9
-171 42 -181 56 -8 12 -2 48 18 107 20 59 30 69 75 76 43 7 46 11 24 40 -28
37 -11 111 37 172 19 23 91 15 127 -16z m1620 -503 c78 -27 81 -170 4 -197
-73 -25 -143 23 -143 99 0 33 6 47 34 75 36 36 55 40 105 23z m-1740 -106 c34
-42 38 -70 16 -113 -40 -78 -143 -81 -180 -5 -37 80 7 154 92 155 36 0 46 -5
72 -37z m1508 -324 c9 -9 7 -21 -8 -50 -22 -43 -23 -49 -10 -49 6 0 18 14 28
30 32 55 63 33 38 -26 -12 -30 -13 -39 -3 -45 8 -5 15 -3 18 4 23 55 70 78 70
35 0 -26 -60 -128 -75 -128 -5 0 -32 18 -60 40 -27 22 -54 40 -58 40 -18 0
-38 31 -33 48 9 28 64 112 74 112 4 0 13 -5 19 -11z m-1383 -49 c35 -54 43
-92 21 -113 -9 -10 -23 -17 -31 -17 -8 0 -19 -10 -25 -23 -26 -58 -79 -54
-120 9 -40 61 -41 72 -15 95 36 31 120 87 132 88 6 1 23 -17 38 -39z m1290
-96 c27 -11 19 -44 -14 -55 -36 -13 -40 -45 -9 -78 28 -30 53 -24 57 16 3 30
24 49 43 37 5 -3 9 -23 9 -45 0 -50 -37 -89 -84 -89 -47 0 -97 54 -103 112 -4
38 -1 48 25 76 30 32 46 37 76 26z m-1175 -40 c11 -15 19 -29 17 -33 -2 -3
-11 -24 -21 -46 -9 -22 -24 -54 -31 -72 -8 -17 -14 -35 -14 -41 0 -5 -6 -15
-13 -21 -19 -15 -45 15 -45 53 1 32 -15 46 -54 46 -23 0 -28 5 -28 24 0 17 9
28 33 40 17 8 52 29 77 45 25 16 48 30 52 30 4 1 16 -11 27 -25z m134 -94 c14
-11 29 -30 32 -41 5 -15 10 -17 20 -9 9 8 20 7 38 -1 22 -10 27 -20 29 -58 l3
-46 18 33 c14 26 23 33 44 30 45 -5 50 -28 23 -115 -13 -43 -30 -85 -37 -93
-13 -13 -16 -13 -28 4 -10 13 -11 25 -4 43 5 13 9 27 9 29 0 10 -26 -21 -33
-38 -3 -10 -12 -18 -20 -18 -26 0 -36 23 -32 69 3 25 2 39 -1 31 -29 -72 -35
-80 -55 -70 -21 12 -23 22 -10 48 17 33 33 100 27 111 -17 27 -33 10 -32 -35
1 -34 -4 -49 -18 -60 -24 -17 -60 -18 -87 -3 -25 13 -48 65 -41 91 7 28 35 18
51 -20 8 -17 18 -32 23 -32 13 0 9 29 -8 55 -50 77 18 150 89 95z m831 -26
c10 -4 18 -24 22 -54 5 -37 13 -53 35 -69 35 -26 36 -38 5 -52 -20 -10 -30 -8
-56 11 -37 26 -45 22 -29 -13 13 -29 -1 -57 -27 -57 -17 0 -97 167 -88 181 3
5 22 21 42 34 37 24 67 30 96 19z m-480 -116 c13 -30 26 -103 30 -168 2 -34
-28 -37 -57 -6 -28 30 -40 32 -57 11 -15 -18 -47 -20 -53 -2 -4 12 17 73 54
154 25 56 60 60 83 11z m184 4 c3 -17 -2 -25 -17 -29 -19 -5 -21 -13 -21 -85
l0 -79 -27 3 c-26 3 -28 7 -31 53 -4 75 -10 95 -31 95 -10 0 -24 7 -31 15 -27
32 27 54 125 51 23 -1 31 -6 33 -24z"/>
<path d="M1445 1619 c-115 -27 -230 -53 -255 -58 -25 -5 -73 -15 -108 -22
l-63 -13 -42 48 c-32 35 -51 48 -79 53 -33 5 -42 1 -73 -30 -29 -29 -35 -42
-35 -77 0 -64 20 -117 60 -163 32 -36 43 -42 79 -42 59 0 80 26 89 105 l7 64
165 39 c316 73 367 82 385 67 8 -6 20 -8 26 -4 18 11 83 11 91 -1 4 -5 8 4 8
21 0 19 6 34 15 38 29 11 15 26 -22 25 -21 -1 -132 -23 -248 -50z m-510 -47
c68 -57 60 -222 -10 -222 -70 0 -124 166 -74 226 16 19 60 17 84 -4z"/>
<path d="M1750 1280 c-8 -5 -25 -10 -38 -10 -13 0 -63 -9 -110 -21 -48 -11
-107 -25 -132 -30 -25 -5 -103 -23 -173 -39 -165 -39 -182 -39 -202 0 -17 33
-69 70 -98 70 -28 0 -74 -30 -86 -57 -35 -77 12 -213 87 -249 27 -12 39 -13
67 -4 42 14 55 36 61 102 4 57 9 68 30 68 9 0 55 9 102 20 48 12 105 25 127
30 22 5 89 21 150 35 120 29 155 27 155 -8 0 -22 0 -22 13 2 9 18 21 25 47 26
19 1 41 -4 49 -9 12 -9 13 -6 8 16 -6 21 -3 30 13 38 11 6 20 15 20 20 0 13
-71 13 -90 0z m-701 -94 c13 -14 29 -49 36 -78 30 -132 -62 -191 -123 -78 -19
36 -23 56 -20 97 3 28 10 59 17 67 20 24 64 20 90 -8z"/>
</g>
</svg>
